<svg aria-hidden="true" style="position: absolute; width: 0; height: 0; overflow: hidden;" version="1.1" xmlns="http://www.w3.org/2000/svg" xmlns:xlink="http://www.w3.org/1999/xlink">
<defs>
<symbol id="icon-apple" viewBox="0 0 32 32">
<path d="M26.22 22.415c-0.407 0.938-0.862 1.743-1.39 2.493l0.029-0.043c-0.716 1.023-1.304 1.729-1.755 2.123-0.7 0.643-1.452 0.973-2.256 0.992-0.576 0-1.272-0.164-2.083-0.497-0.813-0.332-1.56-0.495-2.244-0.495-0.716 0-1.484 0.163-2.307 0.495-0.821 0.333-1.485 0.508-1.993 0.524-0.769 0.033-1.539-0.305-2.305-1.019-0.489-0.427-1.101-1.16-1.836-2.197-0.787-1.105-1.433-2.392-1.94-3.855-0.543-1.583-0.815-3.113-0.815-4.596 0-1.697 0.367-3.163 1.101-4.389 0.566-0.97 1.345-1.758 2.277-2.318l0.029-0.016c0.891-0.543 1.966-0.869 3.116-0.883l0.004-0c0.613 0 1.417 0.189 2.413 0.563s1.636 0.563 1.915 0.563c0.211 0 0.919-0.223 2.124-0.664 1.137-0.409 2.097-0.579 2.884-0.512 2.133 0.172 3.735 1.012 4.8 2.527-1.907 1.156-2.849 2.773-2.831 4.849 0.016 1.617 0.604 2.963 1.756 4.031 0.494 0.473 1.075 0.861 1.716 1.136l0.038 0.014c-0.141 0.409-0.291 0.8-0.448 1.176zM21.331 3.173c0 1.267-0.464 2.451-1.385 3.545-1.115 1.301-2.461 2.055-3.921 1.936-0.018-0.141-0.028-0.304-0.028-0.469 0-0.004 0-0.008 0-0.012v0.001c0-1.217 0.528-2.519 1.471-3.584 0.469-0.539 1.067-0.988 1.791-1.345 0.723-0.352 1.405-0.547 2.048-0.58 0.017 0.171 0.025 0.34 0.025 0.508z"></path>
</symbol>
<symbol id="icon-android" viewBox="0 0 32 32">
<path d="M24.459 11.613c-0.943 0-1.705 0.763-1.705 1.704v6.040c0 0.942 0.764 1.705 1.705 1.705s1.705-0.764 1.705-1.705v0-6.040c0-0.941-0.763-1.704-1.705-1.704zM7.541 11.613c-0.943 0-1.705 0.763-1.705 1.704v6.040c0 0.942 0.763 1.705 1.705 1.705s1.705-0.764 1.705-1.705v0-6.040c0-0 0-0.001 0-0.001 0-0.94-0.762-1.703-1.703-1.703-0.001 0-0.002 0-0.003 0h0zM19.393 6.535l1.024-1.851c0.038-0.065 0.060-0.143 0.060-0.226 0-0.172-0.095-0.321-0.235-0.4l-0.002-0.001c-0.065-0.037-0.142-0.059-0.225-0.059-0.173 0-0.323 0.096-0.402 0.237l-0.001 0.002-1.052 1.893c-0.784-0.313-1.648-0.491-2.56-0.491s-1.776 0.176-2.56 0.489l-1.052-1.891c-0.079-0.144-0.23-0.239-0.403-0.239-0.083 0-0.16 0.022-0.228 0.060l0.002-0.001c-0.142 0.080-0.236 0.23-0.236 0.402 0 0.083 0.022 0.16 0.060 0.227l-0.001-0.002 1.024 1.851c-1.844 1.051-3.076 2.929-3.076 5.077 0 0.015 0 0.028 0.003 0.045-0.003 0.008-0.003 0.017-0.003 0.025v0.001h12.937v-0.072c0.001-2.148-1.231-4.025-3.075-5.079zM13.013 9.159c-0.254-0.002-0.459-0.208-0.459-0.462 0-0.255 0.207-0.462 0.462-0.462 0.001 0 0.002 0 0.004 0h-0c0.254 0.002 0.459 0.208 0.459 0.462 0 0.255-0.207 0.462-0.462 0.462-0.001 0-0.002 0-0.004 0h0zM18.987 9.159c-0.24-0.019-0.428-0.218-0.428-0.461s0.188-0.443 0.426-0.461l0.002-0c0.255 0 0.461 0.207 0.461 0.461s-0.207 0.461-0.461 0.461v0zM9.531 21.493c0 0.861 0.7 1.561 1.565 1.561h0.781v3.201c0 0.942 0.764 1.705 1.705 1.705s1.705-0.764 1.705-1.705v0-3.201h1.421v3.201c0 0.943 0.763 1.704 1.703 1.704 0.945 0 1.708-0.761 1.708-1.704v-3.201h0.781c0.864 0 1.565-0.699 1.565-1.561v-9.456h-12.936v9.456z"></path>
</symbol>
<symbol id="icon-windows" viewBox="0 0 32 32">
<path d="M4 7.409l9.809-1.336 0.005 9.463-9.805 0.056-0.009-8.183zM13.805 16.627l0.008 9.471-9.805-1.348v-8.187l9.797 0.064zM14.995 5.899l13.007-1.899v11.416l-13.007 0.103v-9.62zM28.005 16.716l-0.004 11.364-13.007-1.837-0.019-9.548 13.029 0.021z"></path>
</symbol>
</defs>
</svg>
